<svg id="svg" version="1.1" xmlns="http://www.w3.org/2000/svg" xmlns:xlink="http://www.w3.org/1999/xlink" width="400" height="400" viewBox="0, 0, 400,400"><g id="svgg"><path id="path0" d="M143.600 100.298 C 96.132 105.905,59.967 141.536,54.279 188.300 C 54.238 188.630,54.145 189.395,54.070 190.000 C 53.869 191.638,53.676 203.377,53.852 203.268 C 53.993 203.181,55.893 201.053,67.878 187.563 L 72.256 182.635 76.378 186.300 C 78.645 188.316,82.705 191.920,85.400 194.308 C 88.095 196.697,90.660 198.975,91.100 199.371 C 93.756 201.760,93.951 201.870,93.840 200.918 C 93.796 200.543,93.860 198.691,93.983 196.801 C 96.454 158.582,131.701 132.780,168.807 142.028 L 172.115 142.852 173.578 142.209 C 174.384 141.856,175.730 141.249,176.571 140.861 C 177.412 140.472,179.000 139.751,180.100 139.257 C 182.270 138.284,183.600 137.675,185.570 136.754 C 186.269 136.428,187.034 136.136,187.270 136.106 C 187.507 136.076,188.465 135.697,189.400 135.263 C 190.335 134.829,192.785 133.715,194.845 132.787 C 196.905 131.859,198.592 131.000,198.595 130.878 C 198.600 130.674,198.234 129.816,196.856 126.800 C 196.579 126.195,195.699 124.260,194.899 122.500 C 194.099 120.740,193.154 118.670,192.799 117.900 C 192.444 117.130,191.815 115.735,191.401 114.800 C 190.987 113.865,190.233 112.217,189.724 111.138 C 189.216 110.059,188.800 109.136,188.800 109.087 C 188.800 108.772,186.953 105.205,186.829 105.282 C 186.745 105.334,185.691 105.062,184.488 104.678 C 178.378 102.725,170.552 101.063,163.800 100.285 C 160.784 99.938,146.573 99.947,143.600 100.298 M233.200 100.215 C 233.200 100.335,237.264 111.563,242.232 125.166 C 247.200 138.770,251.302 150.083,251.347 150.306 C 251.400 150.567,250.438 152.436,248.663 155.518 L 245.897 160.324 243.669 155.812 C 233.904 136.039,218.783 120.737,199.086 110.696 C 195.302 108.767,195.394 108.720,196.822 111.856 C 197.383 113.090,198.048 114.550,198.299 115.100 C 198.550 115.650,199.161 117.000,199.657 118.100 C 200.154 119.200,200.849 120.730,201.203 121.500 C 202.110 123.474,202.615 124.583,203.751 127.100 C 206.440 133.054,206.855 134.011,206.781 134.076 C 206.736 134.114,205.875 134.515,204.867 134.965 C 203.859 135.416,202.464 136.048,201.767 136.370 C 201.070 136.691,199.600 137.361,198.500 137.857 C 195.253 139.323,194.168 139.817,192.900 140.404 C 191.643 140.986,183.801 144.536,181.650 145.496 C 180.087 146.195,180.067 146.125,182.146 147.200 C 211.814 162.531,222.634 201.445,205.317 230.528 C 201.374 237.151,193.697 245.711,189.691 247.953 C 189.351 248.143,189.222 248.722,187.594 257.300 C 187.031 260.270,186.483 262.862,186.377 263.060 C 186.271 263.258,185.866 265.058,185.477 267.060 C 185.087 269.062,184.565 271.735,184.317 273.000 C 184.001 274.607,183.930 275.339,184.082 275.430 C 184.252 275.531,188.896 276.465,194.300 277.484 C 197.673 278.120,204.490 279.451,205.100 279.594 C 208.451 280.375,213.505 281.131,213.314 280.823 C 213.254 280.725,213.901 280.124,214.752 279.487 C 225.853 271.185,236.357 258.655,242.742 246.100 C 243.469 244.670,244.169 243.410,244.297 243.300 C 244.426 243.190,244.893 242.470,245.336 241.700 C 251.255 231.405,264.305 208.876,264.393 208.800 C 264.456 208.745,264.619 208.475,264.755 208.200 C 265.200 207.297,266.453 205.102,266.582 205.000 C 266.651 204.945,266.821 204.675,266.958 204.400 C 267.095 204.125,267.423 203.540,267.685 203.100 C 268.430 201.851,268.774 201.250,269.121 200.588 C 269.297 200.251,269.472 200.005,269.509 200.042 C 269.545 200.079,277.683 222.337,287.592 249.504 C 297.501 276.672,305.708 299.147,305.829 299.450 L 306.049 300.000 326.124 300.000 C 337.166 300.000,346.199 299.978,346.198 299.950 C 346.197 299.923,329.790 254.945,309.738 200.000 L 273.281 100.100 253.240 100.049 C 238.925 100.013,233.200 100.060,233.200 100.215 M70.500 193.946 C 69.290 195.331,66.137 198.902,63.494 201.882 C 54.657 211.845,54.169 212.421,54.360 212.667 C 54.459 212.795,54.650 213.710,54.783 214.700 C 60.259 255.442,92.392 289.534,133.300 298.005 C 141.195 299.640,144.722 299.980,153.800 299.980 C 161.944 299.980,163.579 299.869,169.200 298.935 C 182.220 296.771,193.114 292.908,204.349 286.472 C 205.307 285.923,205.141 285.764,203.334 285.497 C 203.095 285.462,202.225 285.297,201.400 285.130 C 199.059 284.656,198.796 284.604,197.200 284.305 C 196.375 284.151,193.810 283.655,191.500 283.204 C 189.190 282.753,185.455 282.029,183.200 281.596 C 177.241 280.450,176.796 280.356,176.712 280.219 C 176.670 280.151,176.890 278.792,177.202 277.198 C 177.513 275.604,178.228 271.915,178.791 269.000 C 179.353 266.085,179.901 263.295,180.007 262.800 C 180.377 261.082,181.800 253.520,181.800 253.275 C 181.800 253.127,180.895 253.455,179.550 254.090 C 147.376 269.277,109.429 253.588,97.368 220.113 C 96.547 217.833,95.237 213.105,95.156 212.127 C 95.103 211.487,94.850 211.190,92.912 209.500 C 89.258 206.314,83.332 200.988,81.900 199.603 C 80.257 198.014,72.861 191.389,72.758 191.414 C 72.726 191.421,71.710 192.561,70.500 193.946 " stroke="none" fill="#fbfcfc" fill-rule="evenodd"></path><path id="path1" d="M0.000 200.000 L 0.000 400.000 200.000 400.000 L 400.000 400.000 400.000 200.000 L 400.000 0.000 200.000 0.000 L 0.000 0.000 0.000 200.000 M163.800 100.287 C 170.445 101.057,177.572 102.544,183.613 104.421 C 185.091 104.881,186.459 105.272,186.653 105.291 C 187.192 105.345,187.230 105.412,189.258 109.900 C 190.302 112.210,191.382 114.595,191.659 115.200 C 191.936 115.805,193.061 118.280,194.159 120.700 C 196.857 126.646,197.141 127.270,197.923 128.978 C 198.295 129.791,198.600 130.611,198.600 130.800 C 198.600 131.118,187.877 136.200,187.206 136.200 C 187.083 136.200,183.704 137.685,179.697 139.500 C 171.669 143.137,172.249 142.958,170.299 142.399 C 135.522 132.441,99.878 155.455,94.509 191.333 C 94.158 193.679,93.723 199.914,93.840 200.918 C 93.989 202.197,94.923 202.970,76.700 186.727 L 72.300 182.805 71.449 183.752 C 70.980 184.274,66.885 188.902,62.349 194.037 C 57.812 199.173,54.010 203.380,53.900 203.388 C 53.683 203.402,53.828 191.969,54.070 190.000 C 54.145 189.395,54.238 188.630,54.279 188.300 C 59.967 141.536,96.132 105.905,143.600 100.298 C 146.583 99.945,160.788 99.938,163.800 100.287 M309.738 200.000 C 329.790 254.945,346.197 299.923,346.198 299.950 C 346.199 299.978,337.166 300.000,326.124 300.000 L 306.049 300.000 305.829 299.450 C 305.708 299.147,297.501 276.672,287.592 249.504 C 277.683 222.337,269.545 200.079,269.509 200.042 C 269.472 200.005,269.297 200.251,269.121 200.588 C 268.774 201.250,268.430 201.851,267.685 203.100 C 267.423 203.540,267.095 204.125,266.958 204.400 C 266.821 204.675,266.651 204.945,266.582 205.000 C 266.453 205.102,265.200 207.297,264.755 208.200 C 264.619 208.475,264.456 208.745,264.393 208.800 C 264.305 208.876,251.255 231.405,245.336 241.700 C 244.893 242.470,244.426 243.190,244.297 243.300 C 244.169 243.410,243.469 244.670,242.742 246.100 C 236.357 258.655,225.853 271.185,214.752 279.487 C 213.901 280.124,213.254 280.725,213.314 280.823 C 213.491 281.109,212.317 281.028,210.238 280.611 C 208.498 280.261,199.205 278.457,195.100 277.672 C 194.220 277.504,192.195 277.111,190.600 276.799 C 189.005 276.487,186.890 276.079,185.900 275.892 C 184.910 275.705,184.034 275.492,183.953 275.418 C 183.800 275.281,185.303 267.139,186.004 264.300 C 186.376 262.795,188.791 250.877,189.091 249.067 C 189.203 248.391,189.377 248.136,190.012 247.715 C 197.332 242.872,205.717 231.759,209.671 221.663 C 220.576 193.817,208.351 160.743,182.147 147.200 C 181.189 146.705,180.429 146.225,180.458 146.134 C 180.487 146.042,184.963 143.948,190.405 141.481 C 205.045 134.842,206.488 134.180,206.628 134.034 C 206.748 133.909,205.584 131.277,199.848 118.700 C 196.963 112.373,195.800 109.693,195.800 109.372 C 195.800 109.091,196.455 109.355,199.086 110.696 C 218.783 120.737,233.904 136.039,243.669 155.812 L 245.897 160.324 248.663 155.518 C 250.438 152.436,251.400 150.567,251.347 150.306 C 251.302 150.083,247.200 138.770,242.232 125.166 C 237.264 111.563,233.200 100.335,233.200 100.215 C 233.200 100.060,238.925 100.013,253.240 100.049 L 273.281 100.100 309.738 200.000 M76.834 194.834 C 78.960 196.723,81.027 198.558,81.426 198.912 C 81.825 199.266,82.185 199.637,82.226 199.736 C 82.301 199.920,85.675 202.962,90.600 207.286 C 95.106 211.242,95.054 211.189,95.138 211.983 C 95.262 213.168,96.527 217.778,97.368 220.113 C 109.429 253.588,147.376 269.277,179.550 254.090 C 181.601 253.122,181.800 253.064,181.800 253.436 C 181.800 253.660,181.299 256.422,180.686 259.572 C 180.073 262.722,179.217 267.145,178.782 269.400 C 178.348 271.655,177.693 275.011,177.327 276.857 C 176.961 278.704,176.715 280.247,176.781 280.286 C 176.846 280.325,178.430 280.640,180.300 280.985 C 182.170 281.329,184.060 281.695,184.500 281.797 C 184.940 281.898,186.245 282.160,187.400 282.379 C 188.555 282.598,192.515 283.364,196.200 284.081 C 199.885 284.799,203.343 285.458,203.884 285.545 C 205.081 285.738,205.203 285.982,204.349 286.472 C 193.119 292.906,182.219 296.771,169.200 298.935 C 163.579 299.869,161.944 299.980,153.800 299.980 C 144.722 299.980,141.195 299.640,133.300 298.005 C 92.392 289.534,60.259 255.442,54.783 214.700 C 54.650 213.710,54.453 212.788,54.347 212.651 C 54.081 212.310,54.297 212.020,57.530 208.388 C 66.484 198.330,72.308 191.730,72.367 191.576 C 72.537 191.127,73.227 191.630,76.834 194.834 " stroke="none" fill="#245c94" fill-rule="evenodd"></path><path id="path2" d="M71.790 183.150 L 71.310 183.700 71.798 183.252 L 72.285 182.804 72.992 183.452 L 73.700 184.100 73.011 183.350 C 72.192 182.459,72.368 182.488,71.790 183.150 M70.389 184.750 L 69.700 185.500 70.450 184.811 C 71.148 184.169,71.292 184.000,71.139 184.000 C 71.106 184.000,70.768 184.338,70.389 184.750 M74.600 184.900 C 74.973 185.285,75.323 185.600,75.378 185.600 C 75.433 185.600,75.173 185.285,74.800 184.900 C 74.427 184.515,74.077 184.200,74.022 184.200 C 73.967 184.200,74.227 184.515,74.600 184.900 M67.271 188.250 C 62.752 193.294,61.958 194.200,62.059 194.200 C 62.115 194.200,63.223 193.008,64.522 191.550 C 65.821 190.093,67.551 188.158,68.367 187.250 C 69.182 186.343,69.803 185.600,69.747 185.600 C 69.691 185.600,68.576 186.793,67.271 188.250 M76.400 186.500 C 76.773 186.885,77.123 187.200,77.178 187.200 C 77.233 187.200,76.973 186.885,76.600 186.500 C 76.227 186.115,75.877 185.800,75.822 185.800 C 75.767 185.800,76.027 186.115,76.400 186.500 M78.200 188.100 C 78.573 188.485,78.923 188.800,78.978 188.800 C 79.033 188.800,78.773 188.485,78.400 188.100 C 78.027 187.715,77.677 187.400,77.622 187.400 C 77.567 187.400,77.827 187.715,78.200 188.100 M79.600 189.256 C 79.600 189.308,80.203 189.880,80.941 190.526 C 81.678 191.172,82.219 191.597,82.142 191.471 C 81.969 191.188,79.600 189.123,79.600 189.256 M71.813 192.285 L 71.125 193.100 71.903 192.357 C 72.330 191.948,72.639 191.581,72.590 191.541 C 72.540 191.502,72.191 191.836,71.813 192.285 M73.800 192.300 C 74.173 192.685,74.523 193.000,74.578 193.000 C 74.633 193.000,74.373 192.685,74.000 192.300 C 73.627 191.915,73.277 191.600,73.222 191.600 C 73.167 191.600,73.427 191.915,73.800 192.300 M82.800 192.063 C 82.800 192.097,83.093 192.390,83.450 192.713 L 84.100 193.300 83.513 192.650 C 82.965 192.044,82.800 191.908,82.800 192.063 M70.091 194.250 L 69.300 195.100 70.150 194.309 C 70.940 193.574,71.092 193.400,70.941 193.400 C 70.908 193.400,70.525 193.783,70.091 194.250 M75.800 194.100 C 76.173 194.485,76.523 194.800,76.578 194.800 C 76.633 194.800,76.373 194.485,76.000 194.100 C 75.627 193.715,75.277 193.400,75.222 193.400 C 75.167 193.400,75.427 193.715,75.800 194.100 M85.200 194.300 C 85.573 194.685,85.923 195.000,85.978 195.000 C 86.033 195.000,85.773 194.685,85.400 194.300 C 85.027 193.915,84.677 193.600,84.622 193.600 C 84.567 193.600,84.827 193.915,85.200 194.300 M61.091 195.250 L 60.300 196.100 61.150 195.309 C 61.940 194.574,62.092 194.400,61.941 194.400 C 61.908 194.400,61.525 194.783,61.091 195.250 M77.600 195.700 C 77.973 196.085,78.323 196.400,78.378 196.400 C 78.433 196.400,78.173 196.085,77.800 195.700 C 77.427 195.315,77.077 195.000,77.022 195.000 C 76.967 195.000,77.227 195.315,77.600 195.700 M66.177 198.650 C 64.493 200.548,62.449 202.843,61.633 203.750 C 60.818 204.658,60.200 205.400,60.261 205.400 C 60.321 205.400,62.103 203.442,64.220 201.050 C 66.337 198.658,68.387 196.363,68.775 195.950 C 69.164 195.538,69.426 195.200,69.359 195.200 C 69.292 195.200,67.860 196.753,66.177 198.650 M87.000 195.900 C 87.373 196.285,87.723 196.600,87.778 196.600 C 87.833 196.600,87.573 196.285,87.200 195.900 C 86.827 195.515,86.477 195.200,86.422 195.200 C 86.367 195.200,86.627 195.515,87.000 195.900 M57.011 199.800 C 55.234 201.780,53.852 203.393,53.940 203.386 C 54.028 203.378,54.550 202.851,55.100 202.216 C 55.650 201.580,57.074 199.967,58.265 198.630 C 59.455 197.294,60.387 196.200,60.336 196.200 C 60.284 196.200,58.788 197.820,57.011 199.800 M78.800 196.663 C 78.800 196.697,79.093 196.990,79.450 197.313 L 80.100 197.900 79.513 197.250 C 78.965 196.644,78.800 196.508,78.800 196.663 M88.800 197.500 C 89.173 197.885,89.523 198.200,89.578 198.200 C 89.633 198.200,89.373 197.885,89.000 197.500 C 88.627 197.115,88.277 196.800,88.222 196.800 C 88.167 196.800,88.427 197.115,88.800 197.500 M81.188 198.846 C 81.676 199.366,82.118 199.749,82.171 199.696 C 82.224 199.643,82.228 199.578,82.180 199.550 C 82.133 199.523,81.690 199.140,81.197 198.700 L 80.300 197.900 81.188 198.846 M90.643 199.110 C 91.052 199.533,91.428 199.839,91.479 199.788 C 91.529 199.737,91.195 199.391,90.735 199.018 L 89.900 198.339 90.643 199.110 M82.600 200.263 C 82.600 200.297,82.892 200.590,83.250 200.913 L 83.900 201.500 83.313 200.850 C 82.765 200.244,82.600 200.108,82.600 200.263 M92.401 200.668 C 92.675 200.981,93.080 201.329,93.300 201.443 C 93.721 201.660,93.709 201.647,92.601 200.698 L 91.901 200.100 92.401 200.668 M84.800 202.300 C 85.173 202.685,85.523 203.000,85.578 203.000 C 85.633 203.000,85.373 202.685,85.000 202.300 C 84.627 201.915,84.277 201.600,84.222 201.600 C 84.167 201.600,84.427 201.915,84.800 202.300 M86.200 203.463 C 86.200 203.497,86.493 203.790,86.850 204.113 L 87.500 204.700 86.913 204.050 C 86.365 203.444,86.200 203.308,86.200 203.463 M88.600 205.700 C 88.973 206.085,89.323 206.400,89.378 206.400 C 89.433 206.400,89.173 206.085,88.800 205.700 C 88.427 205.315,88.077 205.000,88.022 205.000 C 87.967 205.000,88.227 205.315,88.600 205.700 M59.291 206.450 L 58.500 207.300 59.350 206.509 C 60.140 205.774,60.292 205.600,60.141 205.600 C 60.108 205.600,59.725 205.982,59.291 206.450 M89.979 206.855 C 90.321 207.291,92.600 209.278,92.600 209.140 C 92.600 209.086,91.948 208.469,91.150 207.771 C 90.353 207.072,89.825 206.660,89.979 206.855 M57.691 208.250 L 56.900 209.100 57.750 208.309 C 58.540 207.574,58.692 207.400,58.541 207.400 C 58.508 207.400,58.125 207.782,57.691 208.250 M56.188 209.950 C 54.752 211.503,54.329 212.000,54.442 212.000 C 54.506 212.000,55.117 211.370,55.800 210.600 C 57.099 209.135,57.386 208.655,56.188 209.950 M93.014 209.550 C 93.022 209.632,93.360 209.965,93.764 210.289 L 94.500 210.879 93.811 210.139 C 93.099 209.375,92.990 209.295,93.014 209.550 " stroke="none" fill="#eff4fc" fill-rule="evenodd"></path><path id="path3" d="" stroke="none" fill="#58b0c8" fill-rule="evenodd"></path><path id="path4" d="" stroke="none" fill="#5c5cc8" fill-rule="evenodd"></path></g></svg>